# File created by Blade
# Date/Time:  Tue Apr 07 20:53:11 2015
# Frame Rate: 120.000 fps
#------------------------------------------------------
:FULLY-SPECIFIED
:DEGREES
1009
root 29.098051 30.598735 2.469998 22.273816 -76.716398 -367.213889
Spine -9.696690 -13.335960 0.423195
Head 17.584199 -0.072521 -0.568779
LeftShoulder -18.820621 41.175220 17.532725
LeftArm 64.849143 -45.628309 -91.885216
LeftForeArm 6.304809 -0.000000 9.620218
LeftHand 5.267210 -0.000000 12.443530
LeftHandThumb1 -26.253704 0.000000 33.147579
RightShoulder -7.151875 6.693913 -29.239834
RightArm 17.172099 14.043028 48.796859
RightForeArm -14.015421 -0.000000 8.837870
RightHand 6.373209 0.000000 -1.797215
RightHandThumb1 -24.326973 -0.000000 -32.862282
LeftUpLeg 7.220980 -10.807010 3.562664
LeftLeg 14.500740 -0.000000 -0.000000
LeftFoot 0.502286 -1.474940 -15.304270
LeftToeBase -53.910773 -0.000000 0.000000
RightUpLeg -49.319381 0.072854 1.031840
RightLeg 27.570897 -0.000000 -0.000000
RightFoot 12.337978 -8.776944 6.570100
RightToeBase -13.552306 -0.000000 0.000000
1010
root 28.677727 30.660873 2.451645 22.941588 -76.281701 -367.682861
Spine -10.148524 -13.527733 0.937882
Head 17.663034 0.202123 -0.942174
LeftShoulder -19.005851 41.393741 17.414137
LeftArm 64.624223 -45.718400 -92.320268
LeftForeArm 6.424643 -0.000000 9.705682
LeftHand 5.342284 -0.000000 12.686223
LeftHandThumb1 -26.253704 0.000000 33.147579
RightShoulder -6.905251 6.700300 -29.209112
RightArm 17.239378 13.831958 48.943982
RightForeArm -13.919945 -0.000000 8.849540
RightHand 6.313342 0.000000 -2.089722
RightHandThumb1 -24.326973 -0.000000 -32.862282
LeftUpLeg 7.307862 -10.706272 4.086571
LeftLeg 14.570253 -0.000000 -0.000000
LeftFoot 2.921284 -1.446175 -15.012151
LeftToeBase -56.438857 -0.000000 0.000000
RightUpLeg -48.854853 -0.089340 1.380462
RightLeg 27.935260 -0.000000 -0.000000
RightFoot 10.780711 -8.733132 6.557282
RightToeBase -13.918795 -0.000000 0.000000
1011
root 28.259155 30.722633 2.435627 23.489957 -75.829132 -368.019307
Spine -10.617548 -13.662951 1.437881
Head 17.769619 0.394641 -1.333257
LeftShoulder -19.102955 41.498501 17.382916
LeftArm 64.162113 -45.781972 -92.500891
LeftForeArm 6.505618 0.000000 9.765787
LeftHand 5.429819 -0.000000 12.867336
LeftHandThumb1 -26.253704 0.000000 33.147579
RightShoulder -6.684525 6.649859 -29.186802
RightArm 17.346113 13.668440 49.099835
RightForeArm -13.845778 -0.000000 8.772810
RightHand 6.457596 -0.000000 -2.208543
RightHandThumb1 -24.326973 -0.000000 -32.862282
LeftUpLeg 7.256413 -10.545149 4.642699
LeftLeg 14.837940 -0.000000 -0.000000
LeftFoot 5.347713 -1.647159 -14.203451
LeftToeBase -58.610926 -0.000000 0.000000
RightUpLeg -48.349042 -0.242789 1.660546
RightLeg 28.274852 -0.000000 -0.000000
RightFoot 8.942105 -8.507459 6.898651
RightToeBase -12.778478 -0.000000 0.000000
1012
root 27.836027 30.780014 2.424776 23.750715 -75.405344 -368.082598
Spine -11.077598 -13.713710 1.840049
Head 17.902352 0.578940 -1.689421
LeftShoulder -19.282095 41.662728 17.306657
LeftArm 63.863647 -45.741242 -92.671000
LeftForeArm 6.518044 -0.000000 9.760295
LeftHand 5.535727 -0.000000 13.014570
LeftHandThumb1 -26.253704 0.000000 33.147579
RightShoulder -6.508244 6.667443 -29.207588
RightArm 17.365046 13.411093 49.265316
RightForeArm -13.706803 -0.000000 8.707512
RightHand 6.366815 -0.000000 -2.062749
RightHandThumb1 -24.326973 -0.000000 -32.862282
LeftUpLeg 7.108529 -10.388752 5.088997
LeftLeg 15.355456 -0.000000 -0.000000
LeftFoot 7.708199 -1.648165 -13.372998
LeftToeBase -60.445258 -0.000000 0.000000
RightUpLeg -47.786202 -0.385718 1.846053
RightLeg 28.604778 -0.000000 -0.000000
RightFoot 7.267002 -8.186111 7.210776
RightToeBase -13.420564 -0.000000 0.000000
1013
root 27.417918 30.832229 2.420598 23.739459 -74.963341 -367.890197
Spine -11.515444 -13.766613 2.188963
Head 18.050501 0.721664 -2.081490
LeftShoulder -19.525915 41.893288 17.186172
LeftArm 63.764055 -45.699403 -93.000278
LeftForeArm 6.602517 -0.000000 9.769404
LeftHand 5.576508 -0.000000 12.961423
LeftHandThumb1 -26.253704 0.000000 33.147579
RightShoulder -6.280280 6.589448 -29.227730
RightArm 17.411056 13.211366 49.388500
RightForeArm -13.515349 -0.000000 8.619548
RightHand 6.449780 0.000000 -2.018660
RightHandThumb1 -24.326973 -0.000000 -32.862282
LeftUpLeg 6.812934 -10.322389 5.441455
LeftLeg 16.208660 -0.000000 -0.000000
LeftFoot 9.766968 -1.478880 -12.682627
LeftToeBase -61.365368 -0.000000 0.000000
RightUpLeg -47.175384 -0.640523 2.035628
RightLeg 28.889525 -0.000000 -0.000000
RightFoot 5.407060 -7.771177 7.299765
RightToeBase -12.745550 -0.000000 0.000000
1014
root 27.008232 30.880411 2.415746 23.657173 -74.488361 -367.639502
Spine -11.904260 -13.723773 2.492133
Head 18.175840 0.782617 -2.418871
LeftShoulder -19.594858 41.884037 17.256164
LeftArm 63.435799 -45.691083 -93.196797
LeftForeArm 6.642407 0.000000 9.828575
LeftHand 5.689813 0.000000 12.779034
LeftHandThumb1 -26.253704 0.000000 33.147579
RightShoulder -6.122844 6.557644 -29.233583
RightArm 17.423004 13.135071 49.490134
RightForeArm -13.411255 -0.000000 8.419561
RightHand 6.468529 -0.000000 -2.354599
RightHandThumb1 -24.326973 -0.000000 -32.862282
LeftUpLeg 6.334586 -10.369441 5.772446
LeftLeg 17.449761 -0.000000 -0.000000
LeftFoot 11.153313 -1.313787 -12.173874
LeftToeBase -60.132742 -0.000000 0.000000
RightUpLeg -46.597947 -0.951154 2.248375
RightLeg 29.159771 -0.000000 -0.000000
RightFoot 3.736672 -7.527418 7.315189
RightToeBase -12.451447 -0.000000 0.000000
1015
root 26.609501 30.924661 2.412724 23.517139 -74.024036 -367.345488
Spine -12.245536 -13.620917 2.761541
Head 18.272510 0.808360 -2.792473
LeftShoulder -19.754563 41.902753 17.233211
LeftArm 63.218434 -45.627878 -93.332725
LeftForeArm 6.648855 -0.000000 9.867106
LeftHand 5.735580 0.000000 12.542368
LeftHandThumb1 -26.253704 0.000000 33.147579
RightShoulder -5.961209 6.532606 -29.241527
RightArm 17.408912 13.059088 49.565612
RightForeArm -13.300811 -0.000000 8.279662
RightHand 6.382141 -0.000000 -2.212948
RightHandThumb1 -24.326973 -0.000000 -32.862282
LeftUpLeg 5.661737 -10.468257 6.041254
LeftLeg 19.093461 -0.000000 -0.000000
LeftFoot 12.107434 -1.102812 -11.484585
LeftToeBase -58.730840 -0.000000 0.000000
RightUpLeg -46.065198 -1.296434 2.493940
RightLeg 29.441430 -0.000000 -0.000000
RightFoot 2.211795 -7.350189 7.185815
RightToeBase -12.279221 -0.000000 0.000000
1016
root 26.224942 30.964001 2.413036 23.231839 -73.618046 -366.932533
Spine -12.506048 -13.368228 2.920950
Head 18.342011 0.748762 -3.095400
LeftShoulder -19.798365 41.627219 17.368346
LeftArm 62.724609 -45.583828 -93.243213
LeftForeArm 6.609191 0.000000 9.951479
LeftHand 5.854798 -0.000000 12.255261
LeftHandThumb1 -26.253704 0.000000 33.147579
RightShoulder -5.835915 6.510458 -29.251378
RightArm 17.340580 13.071901 49.640722
RightForeArm -13.187815 -0.000000 8.082505
RightHand 6.376997 -0.000000 -2.181581
RightHandThumb1 -24.326973 -0.000000 -32.862282
LeftUpLeg 4.834161 -10.598349 6.196154
LeftLeg 21.123889 -0.000000 -0.000000
LeftFoot 12.711255 -0.675508 -10.705955
LeftToeBase -56.325012 -0.000000 0.000000
RightUpLeg -45.578412 -1.639352 2.721913
RightLeg 29.758103 -0.000000 -0.000000
RightFoot 0.833901 -7.323438 7.124458
RightToeBase -12.061037 -0.000000 0.000000
1017
root 25.857612 31.002159 2.416672 22.949957 -73.243253 -366.531422
Spine -12.688092 -13.045513 3.057319
Head 18.311977 0.635662 -3.403112
LeftShoulder -19.836091 41.523474 17.435156
LeftArm 62.559989 -45.663327 -93.512913
LeftForeArm 6.686300 0.000000 10.146669
LeftHand 5.933492 -0.000000 11.889262
LeftHandThumb1 -26.253704 0.000000 33.147579
RightShoulder -5.768400 6.549733 -29.254698
RightArm 17.319668 13.064884 49.704355
RightForeArm -13.022951 0.000000 7.859384
RightHand 6.400262 -0.000000 -2.285099
RightHandThumb1 -24.326973 -0.000000 -32.862282
LeftUpLeg 3.810509 -10.711863 6.293433
LeftLeg 23.530068 -0.000000 -0.000000
LeftFoot 13.062708 -0.088882 -10.256961
LeftToeBase -52.279601 -0.000000 0.000000
RightUpLeg -45.201919 -2.019888 2.990097
RightLeg 30.202001 -0.000000 -0.000000
RightFoot -0.323692 -7.376857 6.996837
RightToeBase -12.202774 -0.000000 0.000000
1018
root 25.505166 31.038611 2.418455 22.829360 -72.896474 -366.371844
Spine -12.720347 -12.593967 3.210457
Head 18.195406 0.474294 -3.708609
LeftShoulder -20.239657 41.650115 17.099842
LeftArm 63.365689 -45.647900 -94.296030
LeftForeArm 6.979855 0.000000 10.175990
LeftHand 6.016966 -0.000000 11.704927
LeftHandThumb1 -26.253704 0.000000 33.147579
RightShoulder -5.784654 6.535953 -29.275362
RightArm 17.302423 12.851832 49.698581
RightForeArm -12.789912 -0.000000 7.756771
RightHand 6.401688 -0.000000 -2.404438
RightHandThumb1 -24.326973 -0.000000 -32.862282
LeftUpLeg 2.677957 -10.682744 6.412444
LeftLeg 26.214112 -0.000000 -0.000000
LeftFoot 13.405372 0.678065 -9.239274
LeftToeBase -47.749934 -0.000000 0.000000
RightUpLeg -44.828794 -2.320658 3.291270
RightLeg 30.702744 -0.000000 -0.000000
RightFoot -1.235137 -7.521049 6.768833
RightToeBase -12.547927 -0.000000 0.000000
1019
root 25.168732 31.076208 2.423015 22.758326 -72.616059 -366.339297
Spine -12.625462 -12.074268 3.356406
Head 18.038305 0.338998 -4.015337
LeftShoulder -20.340499 41.483605 17.053340
LeftArm 63.173716 -45.694709 -94.342944
LeftForeArm 7.037229 -0.000000 10.403058
LeftHand 6.017342 -0.000000 11.623515
LeftHandThumb1 -26.253704 0.000000 33.147579
RightShoulder -5.720958 6.621520 -29.293463
RightArm 17.209087 12.823028 49.747378
RightForeArm -12.718902 -0.000000 7.667375
RightHand 6.549031 -0.000000 -2.503417
RightHandThumb1 -24.326973 -0.000000 -32.862282
LeftUpLeg 1.481081 -10.521847 6.493697
LeftLeg 29.104559 -0.000000 -0.000000
LeftFoot 13.552100 1.652711 -8.701021
LeftToeBase -40.438568 -0.000000 0.000000
RightUpLeg -44.463366 -2.560929 3.564701
RightLeg 31.287655 -0.000000 -0.000000
RightFoot -2.032374 -7.547529 6.720495
RightToeBase -12.162481 -0.000000 0.000000
1020
root 24.833809 31.111922 2.427076 22.880879 -72.476535 -366.650418
Spine -12.350888 -11.382256 3.516753
Head 17.884354 0.226625 -4.301169
LeftShoulder -20.351853 41.418310 17.040987
LeftArm 63.085531 -45.865582 -94.603418
LeftForeArm 7.086833 -0.000000 10.729348
LeftHand 6.006729 -0.000000 11.726051
LeftHandThumb1 -26.253704 0.000000 33.147579
RightShoulder -5.701037 6.553920 -29.334941
RightArm 17.319311 12.908036 49.920766
RightForeArm -12.545350 0.000000 7.618552
RightHand 6.663402 0.000000 -2.593362
RightHandThumb1 -24.326973 -0.000000 -32.862282
LeftUpLeg 0.356129 -10.103069 6.586159
LeftLeg 32.086528 -0.000000 -0.000000
LeftFoot 13.395245 2.911184 -8.733828
LeftToeBase -31.984420 -0.000000 0.000000
RightUpLeg -43.969862 -2.575787 3.807672
RightLeg 31.875270 -0.000000 -0.000000
RightFoot -2.758971 -7.551702 6.906085
RightToeBase -12.237829 -0.000000 0.000000
